<svg width="2235" height="1364" viewBox="0 0 2235 1364" fill="none" xmlns="http://www.w3.org/2000/svg">
<mask id="mask0_2019_585" style="mask-type:luminance" maskUnits="userSpaceOnUse" x="0" y="0" width="2235" height="1364">
<path d="M2234.41 0H0V1363.85H2234.41V0Z" fill="white"/>
</mask>
<g mask="url(#mask0_2019_585)">
<path d="M171.119 114.008C141.728 153.827 122.281 200.28 114.479 249.167C110.019 277.34 109.662 307.233 121.454 333.282C133.245 359.331 159.083 380.4 187.711 379.411C204.726 378.811 222.924 368.008 225.309 351.124C227.547 335.293 214.847 320.339 199.649 315.002C184.451 309.666 167.923 311.872 152.255 315.002C40.5175 338.407 -56.006 408.525 -112.775 507.595C-130.211 538.494 -143.495 576.156 -129.757 608.725C-122.783 625.675 -108.834 639.104 -93.7979 649.518C-24.264 697.544 142.766 602.124 187.792 673.296C219.177 723.025 168.896 786.071 129.937 812.023C24.5897 882.254 -101.648 915.277 -223.799 948.576" stroke="#486DB3" stroke-width="4" stroke-miterlimit="22.93"/>
<path d="M393.279 1506.96C543.23 1458.77 701.892 1370.95 776.875 1232.37C817.814 1156.98 794.555 1079.11 736.699 1073.35C678.843 1067.6 619.641 1152.69 634.742 1230.28C646.907 1293.05 685.558 1319.86 728.719 1329.59C771.896 1339.33 817.927 1330.08 857.747 1310.83C957.79 1262.56 1070.87 1126.88 1145.82 1065.36C1212.99 1010.23 1325.04 1025.64 1357.36 1104.24C1389.69 1182.84 1297.5 1364.48 1234.58 1451.03" stroke="#486DB3" stroke-width="4" stroke-miterlimit="22.93"/>
<path d="M421.078 1409.65C301.507 1355.32 249.539 1240.24 277.404 1187.2C294.532 1154.63 328.172 1153.54 347.603 1169.76C359.946 1180.05 379.507 1202.16 360.125 1234.03C347.181 1255.23 318.067 1261.26 293.202 1261.92C268.337 1262.59 243.927 1255.96 220.278 1248.28C155.464 1227.23 93.3591 1197.48 36.3145 1160.15" stroke="#486DB3" stroke-width="4" stroke-miterlimit="22.93"/>
<path d="M1635.16 1239.53C1620.58 1238.26 1605.66 1237.25 1590.18 1236.67C1368.51 1228.27 1464.12 1487.91 1466.56 1539.53" stroke="#486DB3" stroke-width="4" stroke-miterlimit="22.93"/>
<path d="M2240.15 845.711C2236.66 911.514 2134.56 1141.25 2013.72 1199.87C1887.63 1260.97 1801.15 1256.88 1709.78 1247.26" stroke="#486DB3" stroke-width="4" stroke-miterlimit="22.93"/>
<path d="M1609.11 1295.39C1609.11 1295.39 1683.04 1360.07 1690.43 1367.32C1699.92 1376.6 1689.53 1389.91 1678.37 1381.97C1667.91 1374.57 1604.79 1317.17 1596.18 1308.74C1594.38 1306.98 1593.36 1304.57 1593.36 1302.05C1593.36 1296.93 1597.53 1292.76 1602.65 1292.76C1605.07 1292.76 1607.39 1293.7 1609.12 1295.39H1609.11Z" stroke="#486DB3" stroke-width="4" stroke-miterlimit="22.93"/>
<path d="M1657.86 1337.2C1657.86 1337.2 1692.74 1314.67 1698.49 1310.55C1704.25 1306.43 1699.55 1302.73 1695.01 1303.82C1675.75 1308.31 1639.49 1321.78 1639.49 1321.78" stroke="#486DB3" stroke-width="4" stroke-miterlimit="22.93"/>
<path d="M1642.91 1351.78C1642.91 1351.78 1624.36 1389.02 1620.87 1395.06C1617.38 1401.09 1613.23 1396.94 1613.89 1392.33C1616.26 1372.74 1625.72 1335.21 1625.72 1335.21" stroke="#486DB3" stroke-width="4" stroke-miterlimit="22.93"/>
<path d="M1683.22 1360.77C1683.22 1360.77 1695.92 1357.07 1698.8 1356.16C1702.89 1354.91 1706.78 1358.85 1702.29 1362.41C1696.74 1366.83 1692.66 1369.96 1692.66 1369.96" stroke="#486DB3" stroke-width="4" stroke-miterlimit="22.93"/>
<path d="M1162.31 1140.34C1162.31 1140.34 1230.96 1110.74 1238.33 1108.02C1247.85 1104.53 1253.61 1116.03 1244.46 1121.12C1235.94 1125.86 1175.87 1150.45 1167.19 1153.59C1166.41 1153.88 1165.58 1154.03 1164.74 1154.03C1160.85 1154.03 1157.68 1150.87 1157.68 1146.98C1157.68 1144.02 1159.53 1141.38 1162.31 1140.36V1140.34Z" stroke="#486DB3" stroke-width="4" stroke-miterlimit="22.93"/>
<path d="M1207.01 1120.68C1207.01 1120.68 1203 1089.3 1201.98 1084.03C1200.97 1078.76 1197 1080.75 1196.22 1084.03C1193.04 1098.74 1190.43 1128.06 1190.43 1128.06" stroke="#486DB3" stroke-width="4" stroke-miterlimit="22.93"/>
<path d="M1212.13 1135.75C1212.13 1135.75 1231.66 1160.68 1234.66 1165.05C1237.66 1169.41 1233.47 1170.9 1230.47 1169.02C1217.77 1160.96 1195.08 1142.21 1195.08 1142.21" stroke="#486DB3" stroke-width="4" stroke-miterlimit="22.93"/>
<path d="M1231.53 1110.98C1231.53 1110.98 1233.14 1101.04 1233.48 1098.74C1233.93 1095.53 1237.9 1094.13 1238.91 1098.35C1240.13 1103.62 1240.94 1107.45 1240.94 1107.45" stroke="#486DB3" stroke-width="4" stroke-miterlimit="22.93"/>
<path d="M1236.93 1124.93C1236.93 1124.93 1245.12 1130.76 1246.97 1132.12C1249.58 1134.03 1253.39 1132.12 1251.09 1128.63C1248.2 1124.06 1246.06 1120.78 1246.06 1120.78" stroke="#486DB3" stroke-width="4" stroke-miterlimit="22.93"/>
<path d="M535.561 1231.58L490.227 1276.91C490.227 1276.91 480.463 1239.25 535.561 1231.58Z" stroke="#486DB3" stroke-width="4" stroke-miterlimit="22.93"/>
<path d="M534.619 1390.58C534.619 1390.58 494.07 1328.3 490.226 1276.83C478.856 1312.08 508.327 1378.45 520.557 1395.77L534.603 1390.58H534.619Z" stroke="#486DB3" stroke-width="4" stroke-miterlimit="22.93"/>
<path d="M490.079 1276.83C490.079 1276.83 491.377 1245.45 458.938 1241.2C468.41 1253.77 478.872 1265.75 490.063 1276.83H490.079Z" stroke="#486DB3" stroke-width="4" stroke-miterlimit="22.93"/>
<path d="M427.033 1259.64L490.079 1276.83C490.079 1276.83 457.883 1240.6 427.033 1259.64Z" stroke="#486DB3" stroke-width="4" stroke-miterlimit="22.93"/>
<path d="M490.08 1276.83C490.08 1276.83 522.098 1248.93 548.39 1272.01C518.059 1275.53 490.08 1276.83 490.08 1276.83Z" stroke="#486DB3" stroke-width="4" stroke-miterlimit="22.93"/>
<path d="M528.683 1310.21L490.08 1276.83C490.08 1276.83 538.869 1286.2 528.683 1310.21Z" stroke="#486DB3" stroke-width="4" stroke-miterlimit="22.93"/>
<path d="M450.162 1309.24L490.095 1276.85C490.095 1276.85 440.187 1278.27 450.162 1309.24Z" stroke="#486DB3" stroke-width="4" stroke-miterlimit="22.93"/>
<path d="M231.017 1019.65C260.52 1032.97 241.478 1124.27 241.478 1124.27L145.652 1081.06C145.652 1081.06 201.513 1006.37 231.017 1019.65Z" stroke="#486DB3" stroke-width="4" stroke-miterlimit="22.93"/>
<path d="M145.654 1081.07L79.3965 1051.2C79.3965 1051.2 153.504 936.12 183.008 949.403C198.903 956.556 195.416 998.225 188.831 1034.98" stroke="#486DB3" stroke-width="4" stroke-miterlimit="22.93"/>
<path d="M228.065 1060.15C221.821 1060.33 216.728 1055.12 213.565 1049.69C210.386 1044.26 208.083 1038.01 204.466 1032.74C203.071 1030.65 201.368 1028.75 199.438 1027.13C210.872 1019.6 222.145 1015.58 231.033 1019.6C240.652 1023.96 244.982 1036.55 246.767 1051.54H246.588C239.954 1053.42 234.942 1060.15 228.065 1060.15Z" stroke="#486DB3" stroke-width="4" stroke-miterlimit="22.93"/>
<path d="M191.653 996.425C188.62 998.063 186.139 1000.58 183.187 1002.31C181.516 1003.48 179.537 1004.11 177.494 1004.11C176.083 1004.11 174.671 1003.8 173.39 1003.22C170.73 1001.19 169.173 998.03 169.173 994.689C169.173 994.624 169.173 994.543 169.173 994.478C169.173 994.121 169.173 993.748 169.173 993.375C169.173 990.375 168.8 987.374 168.07 984.471C167.21 981.502 164.469 979.443 161.371 979.443C161.031 979.443 160.69 979.475 160.366 979.507C158.598 980.318 157.024 981.502 155.759 982.995C154.316 984.617 152.24 985.541 150.066 985.541H149.904C145.444 985.087 143.87 979.54 142.929 975.079C142.654 973.652 142.329 972.225 141.924 970.797C157.657 955.178 172.855 944.813 182.895 949.355C192.935 953.88 195.303 972.728 193.843 995.322C193.081 995.63 192.351 996.003 191.653 996.441V996.425Z" stroke="#486DB3" stroke-width="4" stroke-miterlimit="22.93"/>
<path d="M248.244 1127.33L70.2656 1047.1" stroke="#486DB3" stroke-width="4" stroke-miterlimit="22.93"/>
<path d="M1124.5 1300.51C1155 1289.71 1204.49 1368.83 1204.49 1368.83L1105.36 1403.94C1105.36 1403.94 1094.02 1311.22 1124.5 1300.51Z" stroke="#486DB3" stroke-width="4" stroke-miterlimit="22.93"/>
<path d="M1105.36 1403.95L1036.88 1428.36C1036.88 1428.36 1010.73 1293.99 1041.24 1283.19C1057.67 1277.37 1083.96 1309.79 1104.68 1340.96" stroke="#486DB3" stroke-width="4" stroke-miterlimit="22.93"/>
<path d="M1150.38 1331.83C1146.02 1336.29 1138.74 1336.05 1132.7 1334.35C1126.67 1332.64 1120.7 1329.71 1114.39 1328.38C1112.51 1327.99 1110.6 1327.79 1108.68 1327.79C1108.08 1327.79 1107.48 1327.81 1106.9 1327.84C1109.93 1314.49 1115.3 1303.79 1124.51 1300.51C1134.46 1297.03 1146.38 1303.03 1157.96 1312.71C1154.29 1318.74 1155.35 1326.9 1150.38 1331.82V1331.83Z" stroke="#486DB3" stroke-width="4" stroke-miterlimit="22.93"/>
<path d="M1079.98 1311.01C1078.97 1314.28 1078.89 1317.8 1077.95 1321.11C1077.35 1324.57 1074.95 1327.45 1071.64 1328.64C1071.25 1328.69 1070.88 1328.7 1070.49 1328.7C1067.45 1328.7 1064.57 1327.4 1062.54 1325.15C1060.3 1322.64 1057.71 1320.45 1054.84 1318.66C1053.78 1318.06 1052.6 1317.74 1051.38 1317.74C1049.22 1317.74 1047.2 1318.73 1045.88 1320.43C1045.28 1321.92 1044.97 1323.51 1044.97 1325.13C1044.97 1325.47 1044.97 1325.81 1045.02 1326.16V1326.27C1045.02 1328.46 1044.11 1330.55 1042.51 1332.06C1039.02 1334.82 1033.99 1331.88 1030.38 1329.3C1029.19 1328.43 1027.93 1327.63 1026.68 1326.85C1027.16 1304.71 1031.01 1286.71 1041.39 1283.01C1051.79 1279.31 1066.53 1291.32 1081.11 1308.61C1080.69 1309.37 1080.32 1310.16 1079.99 1310.97L1079.98 1311.01Z" stroke="#486DB3" stroke-width="4" stroke-miterlimit="22.93"/>
<path d="M1989.2 1405.97C2018.05 1405.97 2041.44 1382.58 2041.44 1353.73C2041.44 1324.87 2018.05 1301.48 1989.2 1301.48C1960.35 1301.48 1936.96 1324.87 1936.96 1353.73C1936.96 1382.58 1960.35 1405.97 1989.2 1405.97Z" stroke="#486DB3" stroke-width="8.6" stroke-linecap="round" stroke-linejoin="round"/>
<path d="M1989.22 1391.62C2010.15 1391.62 2027.12 1374.65 2027.12 1353.71C2027.12 1332.78 2010.15 1315.81 1989.22 1315.81C1968.28 1315.81 1951.31 1332.78 1951.31 1353.71C1951.31 1374.65 1968.28 1391.62 1989.22 1391.62Z" stroke="#486DB3" stroke-width="8.6" stroke-linecap="round" stroke-linejoin="round"/>
<path d="M1992.67 1349.2C1991.68 1348.46 1990.47 1348.05 1989.22 1348.05C1986.04 1348.05 1983.46 1350.63 1983.46 1353.81C1983.46 1356.99 1986.04 1359.57 1989.22 1359.57C1991.03 1359.57 1992.74 1358.71 1993.82 1357.26C1994.57 1356.27 1994.97 1355.06 1994.97 1353.81C1994.97 1351.99 1994.12 1350.29 1992.67 1349.2Z" stroke="#486DB3" stroke-width="4" stroke-linecap="round" stroke-linejoin="round"/>
<path d="M1995.43 1353.21L2015.12 1372.9L1990.3 1359.4" stroke="#486DB3" stroke-width="4" stroke-linecap="round" stroke-linejoin="round"/>
<path d="M1988.17 1347.87L1964.05 1334.8L1983.53 1354.25" stroke="#486DB3" stroke-width="4" stroke-linecap="round" stroke-linejoin="round"/>
<path d="M1641.37 1168.42C1641.37 1184.98 1671.33 1224.73 1671.33 1224.73C1671.33 1224.73 1701.28 1184.98 1701.28 1168.42C1701.28 1151.87 1687.87 1138.46 1671.33 1138.46C1654.78 1138.46 1641.37 1151.87 1641.37 1168.42Z" stroke="#486DB3" stroke-width="4" stroke-linecap="round" stroke-linejoin="round"/>
<path d="M1671.33 1180.45C1678.68 1180.45 1684.64 1174.49 1684.64 1167.14C1684.64 1159.78 1678.68 1153.82 1671.33 1153.82C1663.97 1153.82 1658.01 1159.78 1658.01 1167.14C1658.01 1174.49 1663.97 1180.45 1671.33 1180.45Z" stroke="#486DB3" stroke-width="4" stroke-linecap="round" stroke-linejoin="round"/>
<path d="M1671.33 1248.04C1675.82 1248.04 1679.45 1244.4 1679.45 1239.92C1679.45 1235.43 1675.82 1231.79 1671.33 1231.79C1666.84 1231.79 1663.2 1235.43 1663.2 1239.92C1663.2 1244.4 1666.84 1248.04 1671.33 1248.04Z" stroke="#486DB3" stroke-width="4" stroke-miterlimit="22.93"/>
<path d="M220.038 696.781C226.672 737.655 199.602 798.333 149.742 830.756" stroke="#486DB3" stroke-width="4" stroke-miterlimit="22.93"/>
<path d="M1392.67 1178.7C1398.8 1141.95 1394.98 1063.83 1342.91 1024.01" stroke="#486DB3" stroke-width="4" stroke-miterlimit="22.93"/>
<path d="M1305.28 1004.7C1305.28 1004.7 1250.91 987.86 1211.86 995.515" stroke="#486DB3" stroke-width="4" stroke-miterlimit="22.93"/>
<path d="M762.682 1161.72C766.169 1131.76 747.273 1095.85 703.609 1120.63" stroke="#486DB3" stroke-width="4" stroke-miterlimit="22.93"/>
<path d="M2045.68 1134.21C2045.68 1134.21 1974.9 1197.99 1886.66 1208.45" stroke="#486DB3" stroke-width="4" stroke-miterlimit="22.93"/>
<path d="M106.046 716.181C109.208 716.181 111.771 713.617 111.771 710.455C111.771 707.293 109.208 704.729 106.046 704.729C102.884 704.729 100.32 707.293 100.32 710.455C100.32 713.617 102.884 716.181 106.046 716.181Z" stroke="#486DB3" stroke-width="4" stroke-miterlimit="22.93"/>
<path d="M257.18 761.368C257.18 769.267 263.586 775.658 271.485 775.658C279.384 775.658 285.791 769.251 285.791 761.368C285.791 753.486 279.384 747.062 271.485 747.062C263.586 747.062 257.18 753.469 257.18 761.368Z" stroke="#486DB3" stroke-width="4" stroke-miterlimit="22.93"/>
<path d="M261.738 823.782C261.738 827.642 264.869 830.757 268.713 830.757C272.557 830.757 275.687 827.642 275.687 823.782C275.687 819.922 272.557 816.808 268.713 816.808C264.869 816.808 261.738 819.938 261.738 823.782Z" stroke="#486DB3" stroke-width="4" stroke-miterlimit="22.93"/>
<path d="M324.346 1110.53C324.346 1113.38 326.665 1115.69 329.504 1115.69C332.342 1115.69 334.661 1113.38 334.661 1110.53C334.661 1107.68 332.342 1105.37 329.504 1105.37H329.471C326.649 1105.37 324.346 1107.68 324.346 1110.5V1110.53Z" stroke="#486DB3" stroke-width="4" stroke-miterlimit="22.93"/>
<path d="M376.996 1110.53C377.012 1118.41 383.419 1124.79 391.302 1124.79C399.185 1124.79 405.608 1118.38 405.608 1110.48C405.608 1102.58 399.201 1096.19 391.302 1096.19C383.403 1096.19 376.996 1102.6 376.996 1110.48V1110.51V1110.53Z" stroke="#486DB3" stroke-width="4" stroke-miterlimit="22.93"/>
<path d="M246.475 1316.59C246.475 1319.44 248.794 1321.74 251.632 1321.74C254.471 1321.74 256.79 1319.44 256.79 1316.59C256.79 1313.73 254.471 1311.43 251.632 1311.43C251.632 1311.43 251.616 1311.43 251.6 1311.43C248.778 1311.43 246.475 1313.71 246.475 1316.55V1316.59Z" stroke="#486DB3" stroke-width="4" stroke-miterlimit="22.93"/>
<path d="M826.882 1270.21C830.044 1270.21 832.607 1267.65 832.607 1264.49C832.607 1261.33 830.044 1258.76 826.882 1258.76C823.72 1258.76 821.156 1261.33 821.156 1264.49C821.156 1267.65 823.72 1270.21 826.882 1270.21Z" stroke="#486DB3" stroke-width="4" stroke-miterlimit="22.93"/>
<path d="M884.104 1241.62C892.963 1241.62 900.145 1234.44 900.145 1225.58C900.145 1216.72 892.963 1209.54 884.104 1209.54C875.244 1209.54 868.062 1216.72 868.062 1225.58C868.062 1234.44 875.244 1241.62 884.104 1241.62Z" stroke="#486DB3" stroke-width="4" stroke-miterlimit="22.93"/>
<path d="M643.727 1044.69C643.727 1048.54 646.841 1051.67 650.701 1051.67C654.561 1051.67 657.675 1048.55 657.675 1044.69C657.675 1040.83 654.545 1037.72 650.701 1037.72C646.857 1037.72 643.727 1040.85 643.727 1044.69Z" stroke="#486DB3" stroke-width="4" stroke-miterlimit="22.93"/>
<path d="M1116.48 992.597V992.629C1116.48 998.631 1121.35 1003.51 1127.37 1003.51C1133.39 1003.51 1138.25 998.647 1138.25 992.629C1138.25 986.612 1133.39 981.746 1127.37 981.746C1121.37 981.746 1116.5 986.596 1116.48 992.597Z" stroke="#486DB3" stroke-width="4" stroke-miterlimit="22.93"/>
<path d="M1154.29 929.649C1154.29 933.136 1157.12 935.959 1160.6 935.959C1164.09 935.959 1166.91 933.136 1166.91 929.649C1166.91 926.162 1164.09 923.34 1160.6 923.34H1160.57C1157.1 923.34 1154.29 926.146 1154.29 929.617V929.649Z" stroke="#486DB3" stroke-width="4" stroke-miterlimit="22.93"/>
<path d="M1458.78 1188.94C1468.26 1188.94 1475.94 1181.25 1475.94 1171.78C1475.94 1162.3 1468.26 1154.62 1458.78 1154.62C1449.31 1154.62 1441.62 1162.3 1441.62 1171.78C1441.62 1181.25 1449.31 1188.94 1458.78 1188.94Z" stroke="#486DB3" stroke-width="4" stroke-miterlimit="22.93"/>
<path d="M1467.95 1104.82C1467.96 1108.91 1471.29 1112.22 1475.38 1112.22C1479.46 1112.22 1482.8 1108.89 1482.8 1104.79C1482.8 1100.69 1479.48 1097.36 1475.38 1097.36C1471.27 1097.36 1467.95 1100.69 1467.95 1104.79V1104.82Z" stroke="#486DB3" stroke-width="4" stroke-miterlimit="22.93"/>
<path d="M1251.58 1273.07C1251.58 1278.44 1255.94 1282.8 1261.31 1282.8C1266.68 1282.8 1271.04 1278.44 1271.04 1273.07C1271.04 1267.7 1266.68 1263.33 1261.31 1263.33C1255.94 1263.33 1251.58 1267.7 1251.58 1273.07Z" stroke="#486DB3" stroke-width="4" stroke-miterlimit="22.93"/>
<path d="M1356.89 1297.69C1356.89 1302.12 1360.5 1305.7 1364.92 1305.7C1369.35 1305.7 1372.94 1302.12 1372.94 1297.67C1372.94 1293.23 1369.35 1289.66 1364.92 1289.66C1360.5 1289.66 1356.89 1293.24 1356.89 1297.67V1297.69Z" stroke="#486DB3" stroke-width="4" stroke-miterlimit="22.93"/>
<path d="M1495.39 1373.99C1495.39 1384.42 1503.86 1392.88 1514.29 1392.88C1524.72 1392.88 1533.18 1384.42 1533.18 1373.99C1533.18 1363.56 1524.72 1355.09 1514.29 1355.09C1503.86 1355.09 1495.39 1363.56 1495.39 1373.99Z" stroke="#486DB3" stroke-width="4" stroke-miterlimit="22.93"/>
<path d="M2134.17 1304.55C2156.94 1304.55 2175.39 1286.1 2175.39 1263.34C2175.39 1240.57 2156.94 1222.12 2134.17 1222.12C2111.41 1222.12 2092.96 1240.57 2092.96 1263.34C2092.96 1286.1 2111.41 1304.55 2134.17 1304.55Z" stroke="#486DB3" stroke-width="4" stroke-miterlimit="22.93"/>
<path d="M2028.86 1235.31C2028.86 1240.68 2033.22 1245.04 2038.59 1245.04C2043.96 1245.04 2048.32 1240.68 2048.32 1235.31C2048.32 1229.94 2043.96 1225.58 2038.59 1225.58C2033.22 1225.58 2028.86 1229.94 2028.86 1235.31Z" stroke="#486DB3" stroke-width="4" stroke-miterlimit="22.93"/>
<path d="M2061.51 1052.72C2066.25 1052.72 2070.09 1048.88 2070.09 1044.14C2070.09 1039.4 2066.25 1035.56 2061.51 1035.56C2056.77 1035.56 2052.93 1039.4 2052.93 1044.14C2052.93 1048.88 2056.77 1052.72 2061.51 1052.72Z" stroke="#486DB3" stroke-width="4" stroke-miterlimit="22.93"/>
<path d="M2135.32 1003.48C2159.34 1003.48 2178.81 984.011 2178.81 959.995C2178.81 935.979 2159.34 916.51 2135.32 916.51C2111.31 916.51 2091.84 935.979 2091.84 959.995C2091.84 984.011 2111.31 1003.48 2135.32 1003.48Z" stroke="#486DB3" stroke-width="4" stroke-miterlimit="22.93"/>
<path d="M1791.32 1190.07C1796.7 1190.07 1801.05 1185.71 1801.05 1180.34C1801.05 1174.96 1796.7 1170.61 1791.32 1170.61C1785.95 1170.61 1781.59 1174.96 1781.59 1180.34C1781.59 1185.71 1785.95 1190.07 1791.32 1190.07Z" stroke="#486DB3" stroke-width="4" stroke-miterlimit="22.93"/>
</g>
</svg>
