<svg width="141" height="55" viewBox="0 0 141 55" fill="none" xmlns="http://www.w3.org/2000/svg">
<path fill-rule="evenodd" clip-rule="evenodd" d="M30.5226 0C43.8969 0 54.7398 10.8186 54.7398 24.1636C54.7398 37.5085 43.8969 48.3264 30.5226 48.3264C17.1476 48.3264 6.30469 37.5085 6.30469 24.1636C6.30469 10.8186 17.1476 0 30.5226 0Z" fill="url(#paint0_radial_138_980)"/>
<path fill-rule="evenodd" clip-rule="evenodd" d="M47.5305 27.8974C47.287 28.3873 46.9392 28.7985 46.4869 29.1294C46.0338 29.4612 45.4817 29.7141 44.8297 29.8869C44.1785 30.0604 43.4452 30.1468 42.6289 30.1468C42.1912 30.1468 41.7565 30.1299 41.3242 30.0948C40.8911 30.0604 40.4611 30.0084 40.0333 29.9396C39.9335 29.919 39.8467 29.9045 39.7723 29.8945C39.6978 29.8846 39.6202 29.8701 39.5411 29.8502V29.8647C39.2524 29.815 39.0059 29.7676 38.8024 29.7233C38.5981 29.679 38.4422 29.6469 38.3324 29.627C38.2426 29.6071 38.1635 29.5575 38.0936 29.4787C38.0237 29.3993 37.9838 29.3152 37.9746 29.2265L37.7358 26.4047C37.7158 26.2167 37.7749 26.0753 37.9147 25.9813C38.0537 25.8872 38.2073 25.8796 38.377 25.9591C38.8646 26.1968 39.5411 26.4689 40.4058 26.7761C41.3019 27.0727 42.1121 27.2217 42.8385 27.2217C43.2862 27.221 43.6464 27.1667 43.9197 27.0582C44.1931 26.9489 44.3298 26.7907 44.3298 26.5828C44.3298 26.4735 44.2507 26.3649 44.091 26.2556C43.833 26.0982 43.2463 25.9293 42.3309 25.7512C40.6101 25.4042 39.4167 24.954 38.7502 24.3999C38.0237 23.8053 37.6605 22.9745 37.6605 21.9044C37.6605 20.6571 38.1059 19.7124 38.9959 19.0681C39.8867 18.4253 41.1276 18.1035 42.7187 18.1035C43.4152 18.1035 44.1563 18.1731 44.9418 18.3106C45.3196 18.3802 45.6506 18.4452 45.934 18.504C46.2181 18.5636 46.4539 18.6232 46.6428 18.6821C46.7226 18.702 46.7948 18.7516 46.8593 18.8304C46.9238 18.9099 46.9614 18.9894 46.9714 19.0681L47.2694 21.6667C47.2901 21.8555 47.2294 22.0015 47.0912 22.1054C46.9515 22.2094 46.7971 22.217 46.6282 22.1276C46.3195 21.9793 45.9962 21.8402 45.6583 21.7118C45.3196 21.5834 44.9664 21.4642 44.5993 21.3557C43.8629 21.1478 43.2017 21.0438 42.6151 21.0438C42.1666 21.0438 41.821 21.0782 41.5776 21.1478C41.3334 21.2165 41.2121 21.3358 41.2121 21.5039C41.2121 21.6621 41.3365 21.786 41.5853 21.8754C41.8141 21.9541 42.0921 22.0412 42.4208 22.1353C42.7487 22.2293 43.1365 22.3156 43.5842 22.3951C45.196 22.7115 46.3003 23.1671 46.8969 23.7609C47.5635 24.3953 47.8968 25.207 47.8968 26.1968C47.8968 26.8403 47.7747 27.4067 47.5305 27.8974ZM29.7533 21.0438V23.1525L30.5143 23.1824C31.7176 23.232 32.3197 22.8697 32.3197 22.0978C32.3197 21.7218 32.1707 21.4321 31.8712 21.2295C31.5733 21.0262 31.1555 20.9445 30.6188 20.9842L29.7533 21.0438ZM29.7679 25.8108V29.5231C29.7679 29.6423 29.7234 29.7455 29.6335 29.8349C29.5437 29.9243 29.4346 29.9687 29.3056 29.9687H26.1426C26.0228 29.9687 25.9161 29.9243 25.8216 29.8349C25.7272 29.7455 25.6796 29.6423 25.6796 29.5231V18.7715C25.6796 18.6523 25.7241 18.5483 25.8139 18.4597C25.9038 18.3703 26.0075 18.3259 26.1272 18.3259H30.5289C31.4734 18.3259 32.3051 18.3924 33.0208 18.5262C33.7365 18.6599 34.3339 18.8755 34.8108 19.172C35.2884 19.4693 35.6486 19.853 35.8928 20.3231C36.1362 20.7939 36.2583 21.3602 36.2583 22.0237C36.2583 23.3406 35.8406 24.3082 35.0051 24.9265C34.1696 25.5456 32.9356 25.8452 31.3045 25.8253L29.7679 25.8108ZM17.1304 29.9687C17.0114 29.9687 16.9069 29.9243 16.8171 29.8349C16.7273 29.7455 16.6827 29.6423 16.6827 29.5231V21.2509H13.5942C13.4644 21.2509 13.3577 21.2066 13.2732 21.118C13.1887 21.0285 13.1465 20.92 13.1465 20.7908V18.7715C13.1465 18.6523 13.1887 18.5483 13.2732 18.4597C13.3577 18.3703 13.4644 18.3259 13.5942 18.3259H23.9195C24.0485 18.3259 24.1576 18.3703 24.2474 18.4597C24.3365 18.5483 24.3818 18.6523 24.3818 18.7715V20.7908C24.3818 20.92 24.3365 21.0285 24.2474 21.118C24.1576 21.2066 24.0485 21.2509 23.9195 21.2509H20.8456V29.5231C20.8456 29.6423 20.8033 29.7455 20.7188 29.8349C20.6344 29.9243 20.5269 29.9687 20.3979 29.9687H17.1304Z" fill="#FEFEFE"/>
<path fill-rule="evenodd" clip-rule="evenodd" d="M60.5026 25.3736C60.5026 25.4396 60.5049 25.5056 60.5049 25.5715C60.5049 41.824 47.3049 54.9997 31.0206 54.9997C14.7371 54.9997 1.53711 41.824 1.53711 25.5715C1.53711 20.6935 2.72761 16.0933 4.83193 12.043C4.83193 12.043 2.76219 17.2155 2.79447 22.8138C2.76834 23.7259 2.78755 24.6395 2.84981 25.5477C3.44467 39.5811 16.1559 52.5473 30.2636 52.5473C45.3189 52.5473 57.5275 40.3888 57.5736 25.3736H60.5026Z" fill="#00AFEF"/>
<path fill-rule="evenodd" clip-rule="evenodd" d="M6.86472 12.1964L9.61014 3.52832L0 11.5079C0 11.5079 1.82695 10.4625 3.88199 10.1386C6.10905 9.80936 6.86472 12.1964 6.86472 12.1964Z" fill="#00AFEF"/>
<path d="M72.924 30.0694C73.055 30.0694 73.1629 30.0244 73.2484 29.9343C73.3339 29.845 73.377 29.7397 73.377 29.6206V21.282H76.4901C76.6211 21.282 76.7312 21.2377 76.8221 21.1477C76.913 21.0576 76.9585 20.9477 76.9585 20.818V18.7825C76.9585 18.6627 76.913 18.5582 76.8221 18.4681C76.7312 18.378 76.6211 18.333 76.4901 18.333H66.0338C65.9021 18.333 65.7942 18.378 65.7087 18.4681C65.6232 18.5582 65.5801 18.6627 65.5801 18.7825V20.818C65.5801 20.9477 65.6232 21.0576 65.7087 21.1477C65.7942 21.2377 65.9021 21.282 66.0338 21.282H69.1615V29.6206C69.1615 29.7397 69.2062 29.845 69.2971 29.9343C69.388 30.0244 69.4936 30.0694 69.6145 30.0694H72.924Z" fill="#366DB4"/>
<path d="M83.906 25.923C84.4475 25.923 84.7589 25.9527 84.8387 26.0123C84.8893 26.0428 84.9369 26.0825 84.9821 26.1321C85.0274 26.1825 85.0696 26.2321 85.1095 26.2824L85.0949 26.2519L87.0201 29.8153C87.0608 29.8847 87.1183 29.9442 87.1934 29.9946C87.2686 30.0442 87.3461 30.0694 87.4266 30.0694H91.2479C91.4389 30.0694 91.5762 29.9969 91.6613 29.8527C91.7472 29.7076 91.7395 29.5504 91.6391 29.381L89.5781 25.923C89.4278 25.723 89.2398 25.5238 89.0136 25.3239C88.7881 25.1247 88.515 24.94 88.1936 24.7698C88.4644 24.6805 88.7129 24.5782 88.9384 24.463C89.1639 24.3485 89.3626 24.2264 89.5328 24.0967C90.2247 23.5876 90.5706 22.7641 90.5706 21.627C90.5706 20.6188 90.1495 19.8052 89.3073 19.1863C88.525 18.6177 87.4864 18.333 86.1933 18.333H78.6405C78.52 18.333 78.415 18.378 78.3244 18.4681C78.2347 18.5582 78.1895 18.6627 78.1895 18.7825V29.6206C78.1895 29.7397 78.2347 29.845 78.3244 29.9343C78.415 30.0244 78.52 30.0694 78.6405 30.0694H81.9808C82.1112 30.0694 82.2217 30.0244 82.3114 29.9343C82.4019 29.845 82.4472 29.7397 82.4472 29.6206V25.923H83.906ZM84.7037 21.0126C85.2552 21.0126 85.6763 21.0981 85.967 21.2675C86.2585 21.4369 86.4034 21.7063 86.4034 22.0757C86.4034 22.5146 86.2132 22.8191 85.832 22.9885C85.4508 23.1587 84.8939 23.2434 84.1622 23.2434H82.3566V21.0126H84.7037Z" fill="#366DB4"/>
<path d="M107.612 30.0694C107.813 30.0694 107.954 30.0022 108.035 29.8672C108.116 29.7328 108.116 29.5802 108.035 29.4108L102.189 18.5879C102.149 18.5177 102.089 18.4582 102.008 18.4078C101.927 18.3582 101.852 18.333 101.782 18.333H99.1078C99.0478 18.333 98.9723 18.3582 98.8814 18.4078C98.7905 18.4582 98.7305 18.5131 98.6997 18.5727L92.4916 29.3955C92.3907 29.5657 92.3861 29.7199 92.4762 29.8595C92.5671 29.9992 92.7134 30.0694 92.9144 30.0694H96.0412C96.122 30.0694 96.2029 30.0442 96.283 29.9946C96.3639 29.9442 96.4239 29.8847 96.4647 29.8153L97.2349 28.3476H102.899L103.67 29.8153C103.7 29.8847 103.758 29.9442 103.843 29.9946C103.929 30.0442 104.007 30.0694 104.077 30.0694H107.612ZM100.165 23.1083L101.525 25.7131H98.7151L100.165 23.1083Z" fill="#366DB4"/>
<path d="M114.791 18.333C114.711 18.333 114.629 18.3606 114.543 18.4157C114.457 18.4708 114.4 18.5328 114.37 18.6032L111.752 24.4288L109.028 18.6032C108.988 18.5228 108.928 18.4578 108.848 18.408C108.767 18.3583 108.687 18.333 108.607 18.333H105.191C105.011 18.333 104.875 18.3981 104.785 18.5282C104.694 18.6583 104.689 18.8084 104.77 18.9783L110.202 30.0293C110.232 30.0997 110.292 30.1625 110.382 30.2169C110.473 30.272 110.553 30.2995 110.623 30.2995H112.594C112.665 30.2995 112.742 30.275 112.827 30.2245C112.913 30.1748 112.975 30.1143 113.016 30.0446L118.493 18.9936C118.573 18.8237 118.571 18.6706 118.485 18.5359C118.4 18.4004 118.262 18.333 118.072 18.333H114.791Z" fill="#366DB4"/>
<path d="M129.172 30.0694C129.302 30.0694 129.41 30.0244 129.495 29.9343C129.58 29.845 129.622 29.7397 129.622 29.6206V27.4349C129.622 27.3051 129.58 27.1952 129.495 27.1052C129.41 27.0159 129.302 26.9708 129.172 26.9708H123.715V25.7131L128.029 25.6986C128.149 25.6986 128.255 25.6536 128.345 25.5635C128.435 25.4735 128.48 25.3643 128.48 25.2346V23.0786C128.48 22.9587 128.435 22.8542 128.345 22.7641C128.255 22.6748 128.149 22.6298 128.029 22.6298H123.715V21.4323H128.765C128.886 21.4323 128.991 21.3873 129.081 21.2973C129.172 21.2072 129.217 21.0981 129.217 20.9683V18.7825C129.217 18.6627 129.172 18.5582 129.081 18.4681C128.991 18.378 128.886 18.333 128.765 18.333H120.001C119.881 18.333 119.776 18.378 119.686 18.4681C119.596 18.5582 119.551 18.6627 119.551 18.7825V29.6206C119.551 29.7397 119.596 29.845 119.686 29.9343C119.776 30.0244 119.881 30.0694 120.001 30.0694H129.172Z" fill="#366DB4"/>
<path d="M134.827 18.7825C134.827 18.6627 134.779 18.5582 134.683 18.4681C134.588 18.378 134.479 18.333 134.358 18.333H131.075C130.944 18.333 130.835 18.378 130.749 18.4681C130.664 18.5582 130.621 18.6627 130.621 18.7825V29.6206C130.621 29.7397 130.666 29.845 130.757 29.9343C130.848 30.0244 130.959 30.0694 131.09 30.0694H140.546C140.667 30.0694 140.773 30.0244 140.864 29.9343C140.955 29.845 141 29.7397 141 29.6206V27.0456C141 26.9159 140.952 26.8083 140.857 26.7236C140.76 26.6388 140.652 26.5961 140.531 26.5961H134.812L134.827 18.7825Z" fill="#366DB4"/>
<defs>
<radialGradient id="paint0_radial_138_980" cx="0" cy="0" r="1" gradientUnits="userSpaceOnUse" gradientTransform="translate(30.9928 7.72758) rotate(88.7901) scale(38.3329 50.2772)">
<stop stop-color="#3ABCEE"/>
<stop offset="0.121569" stop-color="#35A0DA"/>
<stop offset="0.4" stop-color="#3A64AC"/>
<stop offset="0.537255" stop-color="#325599"/>
<stop offset="1" stop-color="#2A4787"/>
</radialGradient>
</defs>
</svg>
